<svg xmlns="http://www.w3.org/2000/svg" viewBox="0 0 24 24"><style>use:not(:target){display:none;}</style><defs><path id="a" d="M 2 1 A 1 1 0 0 0 1 2 L 1 21 A 1 1 0 0 0 2 22 L 17.769531 22 L 15.740234 20.300781 A 6.5 6.5 0 0 1 12.800781 21 A 6.5 6.5 0 0 1 9.3496094 20 L 3 20 L 3 3 L 18 3 L 18 10.599609 A 6.5 6.5 0 0 1 19.300781 14.5 A 6.5 6.5 0 0 1 18.980469 16.5 L 20 17.339844 L 20 2 A 1 1 0 0 0 19 1 L 2 1 z M 5 5 L 5 7 L 16 7 L 16 5 L 5 5 z M 5 9 L 5 11 L 7.3300781 11 A 6.5 6.5 0 0 1 9.3300781 9 L 5 9 z M 12.800781 9.5 A 5 5 0 0 0 7.8007812 14.5 A 5 5 0 0 0 12.800781 19.5 A 5 5 0 0 0 15.875 18.435547 L 21.880859 23.5 L 23.179688 21.980469 L 17.171875 16.914062 A 5 5 0 0 0 17.800781 14.5 A 5 5 0 0 0 12.800781 9.5 z M 12.800781 11.5 A 3 3 0 0 1 15.800781 14.5 A 3 3 0 0 1 12.800781 17.5 A 3 3 0 0 1 9.8007812 14.5 A 3 3 0 0 1 12.800781 11.5 z M 5 13 L 5 15 L 6.3007812 15 A 6.5 6.5 0 0 1 6.2792969 14.5 A 6.5 6.5 0 0 1 6.4609375 13 L 5 13 z"/></defs><use id="blue" href="#a" fill="#0a84ff"/><use id="black" href="#a" fill="#000"/></svg>
