<!-- This Source Code Form is subject to the terms of the Mozilla Public License, v. 2.0. If a copy of the MPL was not distributed with this file, You can obtain one at http://mozilla.org/MPL/2.0/. -->
<svg xmlns="http://www.w3.org/2000/svg" width="16" height="16" fill="#0c0c0d"><path d="M7 12.4c0 .3-.3.6-.6.6s-.6-.3-.6-.6V7.6c-.1-.3.2-.6.6-.6s.6.3.6.6v4.8zM10.2 12.4c0 .3-.3.6-.6.6s-.6-.3-.6-.6V7.6c0-.3.3-.6.6-.6s.6.3.6.6v4.8z"/><path d="M13.6 3H11V2a2 2 0 0 0-2-2H7a2 2 0 0 0-2 2v1H2.4c-.4 0-.6.2-.6.6s.2.6.6.6h.4V14c0 1.1.9 2 2 2h6.5a2 2 0 0 0 2-2V4.2h.4c.3 0 .6-.3.6-.6S14 3 13.6 3zM6.3 1.8l.6-.6h2.3l.6.6V3H6.3V1.8zM12 14.1l-.6.6H4.6l-.6-.6V4.2h8v9.9z"/></svg>
