<svg width="16" height="16" stroke-linecap="round" stroke-linejoin="round" version="1.1" xmlns="http://www.w3.org/2000/svg"><path d="m2 2c-1.1046 0-2 0.89543-2 2v10c0 1.1046 0.89543 2 2 2h10c1.1046 0 2-0.89543 2-2v-5.375c0-0.34518-0.27982-0.625-0.625-0.625s-0.625 0.27982-0.625 0.625v5.5254l-0.59961 0.59961h-10.301l-0.59961-0.59961v-10.301l0.59961-0.59961h5.5254c0.34518 0 0.625-0.27982 0.625-0.625s-0.27982-0.625-0.625-0.625z" fill="#0c0c0d"/><path d="m12.5 1.5c1.4922-1.4922 3.5 0.51562 2 2l-8 8h-2v-2z" stroke="#0c0c0d" fill="none"/></svg>
