<svg width="16" height="16" version="1.1" xmlns="http://www.w3.org/2000/svg"><style>use:not(:target){display:none;}</style><defs><path id="a" d="m3.1035 1c-1.106 0-2.0059 0.89986-2.0059 2.0059v4.2949h-0.59766c-0.30374 5.761e-4 -0.53682 0.26959-0.49414 0.57031 0.37984 1.9161 0.78773 3.8714 1.1406 5.5625h0.0019531c0.20004 0.89675 0.99809 1.5674 1.9551 1.5684h9.7949c0.93827-9.32e-4 1.7189-0.64723 1.9375-1.5176 0.39718-1.9182 0.80842-3.9005 1.1582-5.6133 0.042677-0.30073-0.1904-0.56974-0.49414-0.57031h-0.59766v-2.2949c0-1.106-0.89791-2.0059-2.0039-2.0059h-4.2051l-1.2598-1.3594c-0.37985-0.40835-0.913-0.64015-1.4707-0.64062h-2.8594zm-0.15625 1.25h3.0156c0.21008 8.98e-5 0.4114 0.0866 0.55469 0.24023l1.4453 1.5605 0.45703 0.19922h4.6328l0.59961 0.59961v2.4512h-11.305v-4.4512l0.59961-0.59961zm-1.6328 6.0508h13.371l-1.0332 4.8516-0.59961 0.59961h-10.105l-0.59961-0.59961-1.0332-4.8516z"/></defs><use id="d" href="#a" fill="#f9f9fa"/><use id="l" href="#a" fill="#0c0c0d"/></svg>
