<svg width="16" height="16" version="1.1" xmlns="http://www.w3.org/2000/svg"><style>use:not(:target){display:none;}</style><defs><path id="a" d="m3.1016 0.99805c-1.106-4.8331e-4 -2.0039 0.89986-2.0039 2.0059v9.9922c0.0011026 1.1069 0.89703 2.0048 2.0039 2.0059h9.7969c1.1069-0.001102 2.0028-0.89898 2.0039-2.0059v-7.9922c0-1.106-0.89791-2.0062-2.0039-2.0059l-4.2051 0.0019531-1.2598-1.3594c-0.37985-0.40835-0.91299-0.64015-1.4707-0.64062l-2.8613-0.0019531zm-0.1543 1.25 3.0156 0.0019531c0.21008 8.98e-5 0.4114 0.0866 0.55469 0.24023l1.4453 1.5605 0.45703 0.19922 4.6328-0.0019531 0.59961 0.60156v0.18945h-11.305v-2.1895l0.59961-0.60156zm-0.59961 3.7129h11.305v7.1895l-0.59961 0.60156h-10.105l-0.59961-0.60156v-7.1895z"/></defs><use id="d" href="#a" fill="#f9f9fa"/><use id="l" href="#a" fill="#0c0c0d"/></svg>
