<svg width="16" height="16" fill="#0c0c0d" version="1.1" xmlns="http://www.w3.org/2000/svg"><path d="m2.0059 1c-1.106 0-2.0059 0.89986-2.0059 2.0059v8.9883c6.2947e-4 1.1075 0.89831 2.0052 2.0059 2.0059h6.4941v-1.25h-6.6504l-0.59961-0.59961v-9.3008l0.59961-0.59961h3.1133c0.21021-2.989e-4 0.4111 0.086708 0.55469 0.24023l1.4453 1.5605 0.45703 0.19922h5.7305l0.59961 0.59961v2.6504h1.25v-2.4941c0-1.106-0.89986-2.0059-2.0059-2.0059h-5.3008l-1.2598-1.3594c-0.38008-0.40839-0.91281-0.64044-1.4707-0.64062z"/><path d="m15.4 12.1h-1.9l-0.4 0.4v1.9c0 0.3-0.3 0.6-0.6 0.6s-0.6-0.3-0.6-0.6v-1.9l-0.3-0.4h-2c-0.3 0-0.6-0.2-0.6-0.6 0-0.4 0.3-0.6 0.6-0.6h1.9l0.4-0.3v-2c0-0.3 0.3-0.6 0.6-0.6s0.6 0.3 0.6 0.6v1.9l0.4 0.4h1.9c0.3 1e-6 0.6 0.3 0.6 0.6 0 0.3-0.3 0.6-0.6 0.6z" /></svg>
