<svg xmlns="http://www.w3.org/2000/svg" viewBox="0 0 24 24"><style>use:not(:target){display:none;}</style><defs><path id="a" d="M15.25 17.5a2.25 2.25 0 1 1 4.5 0 2.25 2.25 0 0 1-4.5 0m7.24-.75h-1.32a3.73 3.73 0 0 0-.55-1.32l.94-.93a.75.75 0 1 0-1.06-1.06l-.94.93c-.4-.26-.84-.45-1.32-.55V12.5a.75.75 0 1 0-1.5 0v1.25l.01.07c-.48.1-.93.3-1.32.55l-.93-.93a.75.75 0 1 0-1.06 1.06l.94.94a3.8 3.8 0 0 0-.55 1.31H12.5a.75.75 0 1 0 0 1.5h1.32c.1.48.29.93.55 1.32l-.93.94a.75.75 0 1 0 1.06 1.05l.93-.93c.4.26.84.45 1.32.55v1.32a.75.75 0 1 0 1.5 0v-1.32c.48-.1.92-.29 1.32-.55l.93.94a.75.75 0 0 0 1.06 0 .75.75 0 0 0 0-1.06l-.93-.94c.26-.4.45-.84.55-1.32h1.32a.75.75 0 1 0 0-1.5M2 1a1 1 0 0 0-1 1v19a1 1 0 0 0 1 1h10.81a6.5 6.5 0 0 1-1.3-2H3V3h15v8.03a6.5 6.5 0 0 1 2 .47V2a1 1 0 0 0-1-1zM4 4v2h4V4zm5-1v17h1V3zM4.02 7v2h4V7zM4 10v2h4v-2zm0 3.06v2h4v-2z"/></defs><use id="blue" href="#a" fill="#0a84ff"/><use id="black" href="#a" fill="#000"/></svg>
