<svg xmlns="http://www.w3.org/2000/svg" width="16" height="16"><path fill="#0c0c0d" d="M9.72 1.243L8.956 3.09l.005.003a5 5 0 0 0-1.92.004l.02-.007L6.3 1.242l-1.85.764.766 1.848.025-.01a5 5 0 0 0-1.383 1.38l.01-.026-1.85-.768-.767 1.85 1.847.765.007-.005a5 5 0 0 0 0 1.926l-.007-.018-1.847.764.763 1.848 1.843-.764-.01-.025a5 5 0 0 0 1.38 1.39l-.026-.01L4.432 14l1.85.768.763-1.847-.005-.002a5 5 0 0 0 1.925-.005l-.02.007.764 1.847L11.56 14l-.765-1.85-.026.01a5 5 0 0 0 1.38-1.38l-.01.028 1.85.767.766-1.85-1.848-.764-.005.007A5 5 0 0 0 12.9 7.04l.007.017 1.85-.762-.765-1.848-1.85.763.01.02a5 5 0 0 0-1.38-1.382l.027.01.764-1.847zm-.953 4.91a2 2 0 0 1 1.08 2.614 2 2 0 0 1-2.614 1.08 2 2 0 0 1-1.08-2.614 2 2 0 0 1 2.614-1.08z"/></svg>
