<svg width="16" height="16" version="1.1" xmlns="http://www.w3.org/2000/svg">><style>use:not(:target){display:none;}</style><defs><path id="c" d="m2.9512 1a2 2 0 0 0-1.9512 2v10a2 2 0 0 0 2 2h4.375a0.625 0.625 0 0 0 0-1.25h-4.5254l-0.59961-0.59961v-10.301l0.59961-0.59961h10.301l0.59961 0.59961v4.5254a0.625 0.625 0 0 0 1.25 0v-4.375a2 2 0 0 0-2-2h-10a2 2 0 0 0-0.048828 0zm4.8457 5.5a0.3 0.3 0 0 0-0.28516 0.38086l2.1289 7.8887a0.3 0.3 0 0 0 0.55078 0.070313l1.3496-2.2793 1.8301 2.1387c0.3 0.36 0.84922 0.40156 1.1992 0.10156 0.36-0.31 0.39961-0.8607 0.09961-1.2207l-1.8184-2.1309 2.4199-1a0.3 0.3 0 0 0 0.009766-0.55859l-7.3496-3.3613a0.3 0.3 0 0 0-0.13477-0.029297z"/></defs><use id="d" href="#c" fill="#fbfbfe"/><use id="l" href="#c" fill="#0c0c0d"/></svg>
