<svg xmlns="http://www.w3.org/2000/svg" viewBox="0 0 24 24"><style>use:not(:target){display:none;}</style><defs><path id="a" d="M12 2c-2.95 0-5.64.83-7.64 2.23S1 7.68 1 10c0 2.32 1.35 4.37 3.36 5.77 2 1.4 4.7 2.23 7.64 2.23.58 0 1.15-.04 1.7-.1l4.84 4c.66.54 1.65.07 1.64-.8l-.08-5.68c1.75-1.4 2.9-3.28 2.9-5.42 0-2.32-1.35-4.37-3.36-5.77C17.64 2.83 14.94 2 12 2zm0 2c2.57 0 4.88.74 6.5 1.87C20.1 7 21 8.45 21 10c0 1.55-.9 3-2.5 4.13l-.36.23v4.62l-1.1-.9-2.75-2.3c-.77.14-1.5.22-2.3.22-2.6 0-4.9-.74-6.5-1.87C3.9 13 3 11.55 3 10c0-1.55.9-3 2.5-4.13C7.12 4.74 9.43 4 12 4zM7 8.5A1.5 1.5 0 0 0 5.5 10 1.5 1.5 0 0 0 7 11.5 1.5 1.5 0 0 0 8.5 10 1.5 1.5 0 0 0 7 8.5zm5 0a1.5 1.5 0 0 0-1.5 1.5 1.5 1.5 0 0 0 1.5 1.5 1.5 1.5 0 0 0 1.5-1.5A1.5 1.5 0 0 0 12 8.5zm5 0a1.5 1.5 0 0 0-1.5 1.5 1.5 1.5 0 0 0 1.5 1.5 1.5 1.5 0 0 0 1.5-1.5A1.5 1.5 0 0 0 17 8.5z"/></defs><use id="blue" href="#a" fill="#0a84ff"/><use id="black" href="#a" fill="#000"/></svg>
